<svg width="165" height="70" viewBox="0 0 165 70" fill="none" xmlns="http://www.w3.org/2000/svg">
<path d="M28.545 4.69145C28.2318 4.6917 27.9015 4.69197 27.5921 4.72891C23.9939 5.02906 20.6874 6.55755 18.3327 9.34211C15.7701 12.3724 15.1504 15.5651 15.1804 19.423L8.32528 19.4125C8.01822 19.4122 7.70081 19.4034 7.37891 19.3945C6.48452 19.3698 5.55552 19.3441 4.7177 19.4976C4.21243 19.5902 3.77154 19.8359 3.41621 20.2058C2.79409 20.8534 2.77897 21.6715 2.8194 22.5095C2.88316 23.831 2.99665 25.1541 3.11001 26.4757C3.17167 27.1947 3.23336 27.9138 3.28695 28.6318L4.42475 43.3335L4.97835 50.4331C5.00562 50.7836 5.0274 51.1376 5.04927 51.493C5.12745 52.7636 5.20679 54.0527 5.54222 55.2684C6.1217 57.3352 7.27019 59.1974 8.85679 60.644C10.2434 61.903 11.9194 62.8014 13.7362 63.2584C15.2729 63.6292 17.0582 63.5873 18.7351 63.5479C19.2343 63.5361 19.7238 63.5246 20.1943 63.5243L29.4229 63.5215L37.4828 63.525C37.9232 63.525 38.3764 63.5358 38.8353 63.5467C40.324 63.5821 41.8757 63.619 43.2669 63.2947C45.224 62.8392 47.2045 61.7647 48.6333 60.3481C49.9629 59.0292 51.0252 57.2682 51.4894 55.4487C51.8446 54.0568 51.9337 52.53 52.0202 51.0491C52.048 50.5717 52.0756 50.0987 52.1118 49.6368L52.8682 39.8998L53.8114 27.9442C53.8571 27.3537 53.9162 26.7569 53.9754 26.1588C54.1036 24.8625 54.2329 23.5564 54.2299 22.2753C54.2285 21.4873 54.0617 20.7521 53.497 20.1669C53.1085 19.7637 52.4732 19.5668 51.9357 19.4791C51.1299 19.3477 50.2463 19.3712 49.3916 19.3938C49.0756 19.4022 48.7635 19.4105 48.4608 19.4108C46.3048 19.4066 44.1481 19.4142 41.9922 19.4335L41.8995 19.4349C41.9501 15.3035 41.0304 11.7584 38.0603 8.73682C35.5785 6.16536 32.1635 4.70638 28.5902 4.69141L28.545 4.69145ZM41.6108 28.2568L41.727 28.2635C41.73 28.2714 41.7329 28.2788 41.7357 28.2856C41.7371 28.2892 41.7385 28.2926 41.7399 28.2959C41.745 28.3082 41.7496 28.3189 41.7536 28.3281L41.7585 28.3393C41.7797 28.3876 41.7836 28.3964 41.7826 28.4741C41.7455 33.5401 40.3895 40.0623 36.7941 43.7724C33.4646 47.2082 28.2943 48.8941 23.5793 48.9875C25.7755 44.8569 29.3046 40.9396 32.9449 38.0302C33.5078 37.5806 34.0972 37.1742 34.6869 36.7676C35.0666 36.5058 35.4464 36.2439 35.8195 35.9703C36.1817 35.7045 36.6693 35.3439 36.7206 34.8592C36.7677 34.4128 36.5303 34.0664 36.2508 33.7476C35.8594 33.5207 35.5728 33.426 35.1258 33.5572C34.4912 33.7434 33.8517 34.213 33.2745 34.6367C33.1216 34.749 32.973 34.8581 32.8301 34.9578C28.1624 38.2631 24.2839 42.5598 21.4724 47.5402C21.3776 43.4882 22.3003 40.0939 24.7853 36.8346C28.5146 31.9433 35.6526 29.0686 41.6108 28.2568ZM5.37666 21.9501L51.6861 21.9494C51.5218 23.5091 51.4153 25.083 51.309 26.6544C51.2498 27.5299 51.1906 28.4054 51.1215 29.2769L49.8745 44.9025L49.4083 50.6606C49.3875 50.9106 49.3686 51.1619 49.3496 51.4137C49.2748 52.4071 49.1993 53.4096 49.0076 54.3822C48.8108 55.3803 48.4287 56.248 47.9111 57.1185C47.7114 57.4215 47.4947 57.7131 47.2623 57.9918C45.9198 59.596 43.7161 60.7909 41.6229 60.9491C40.483 61.0352 39.3103 61.0136 38.1485 60.9923C37.6457 60.983 37.1448 60.9738 36.6493 60.9734L27.0417 60.9705L19.3963 60.9741C19.0275 60.9743 18.6522 60.982 18.2741 60.9898C17.1146 61.0138 15.9274 61.0384 14.813 60.8465C13.3513 60.5912 11.9853 59.9474 10.8589 58.9821C9.50963 57.8442 8.5413 56.3207 8.08444 54.616C7.77191 53.4861 7.69398 52.2822 7.61746 51.1001C7.59823 50.8032 7.5791 50.5077 7.55636 50.215L7.10164 44.3563L5.37666 21.9501ZM42.6391 25.5418L42.6046 25.5455C35.575 26.3587 27.5721 29.25 23.0283 34.9444C20.1078 38.6042 18.5122 43.3645 19.0392 48.052C19.1549 49.0814 19.388 50.0653 19.7241 51.0441C19.686 51.1414 19.6397 51.2579 19.5869 51.3905C19.01 52.8405 17.669 56.2108 18.1354 57.2076C18.2703 57.4956 18.5451 57.6888 18.843 57.7836C18.9658 57.8221 19.0894 57.8442 19.2171 57.8592C19.611 57.7943 19.975 57.7131 20.2121 57.3609C20.4666 56.9818 20.7273 56.0717 20.9502 55.2931C21.0564 54.9223 21.1541 54.5812 21.2386 54.3415C21.5274 53.5211 21.8553 52.7142 22.1828 51.9083L22.1867 51.8989C22.225 51.8046 22.2633 51.7103 22.3016 51.6159C28.0983 51.633 34.2895 49.8186 38.4831 45.6809C43.1728 41.0527 44.3542 33.5897 44.3635 27.274C44.3642 26.776 44.33 26.1851 43.9656 25.8043C43.7418 25.57 43.4045 25.4994 43.0916 25.5063C42.9405 25.5097 42.7895 25.5258 42.6391 25.5418ZM27.9814 7.2243C28.2059 7.21039 28.4312 7.19785 28.6558 7.19942C31.4092 7.21874 34.1662 8.45021 36.1011 10.3907C38.7355 13.033 39.2745 15.8368 39.2802 19.4232L29.192 19.4177L17.84 19.4318C17.7532 16.3491 18.2497 13.5335 20.2721 11.0993C22.215 8.76091 24.9878 7.49172 27.9814 7.2243Z" fill="#030A06"/>
<path d="M41.727 28.2635L41.6108 28.2568C35.6527 29.0686 28.5146 31.9432 24.7853 36.8346C22.3003 40.0939 21.3776 43.4882 21.4724 47.5402C24.2839 42.5598 28.1624 38.263 32.8301 34.9578C32.973 34.8581 33.1216 34.7489 33.2745 34.6367C33.8517 34.2129 34.4912 33.7434 35.1258 33.5571C35.5728 33.426 35.8594 33.5206 36.2508 33.7476C36.5303 34.0664 36.7677 34.4128 36.7207 34.8592C36.6693 35.3439 36.1817 35.7045 35.8195 35.9702C35.4464 36.2439 35.0666 36.5058 34.6869 36.7676C34.0972 37.1742 33.5078 37.5806 32.9449 38.0302C29.3046 40.9396 25.7755 44.8569 23.5793 48.9875C28.2943 48.8941 33.4646 47.2082 36.7941 43.7724C40.3895 40.0623 41.7455 33.54 41.7826 28.4741C41.7836 28.3964 41.7797 28.3875 41.7585 28.3392C41.7534 28.3276 41.7472 28.3135 41.7399 28.2959C41.736 28.2863 41.7317 28.2756 41.727 28.2635ZM42.6046 25.5455L42.6391 25.5418C42.7895 25.5257 42.9406 25.5096 43.0916 25.5063C43.4046 25.4994 43.7418 25.57 43.9657 25.8043C44.33 26.1851 44.3642 26.776 44.3635 27.274C44.3542 33.5896 43.1729 41.0526 38.4831 45.6809C34.2895 49.8186 28.0983 51.633 22.3016 51.6159C22.2633 51.7102 22.225 51.8045 22.1867 51.8989L22.1828 51.9083C21.8553 52.7141 21.5274 53.5211 21.2386 54.3415C21.1541 54.5812 21.0565 54.9222 20.9503 55.2931C20.7273 56.0716 20.4666 56.9818 20.2121 57.3608C19.975 57.713 19.611 57.7943 19.2172 57.8592C19.0894 57.8442 18.9658 57.8221 18.843 57.7836C18.5451 57.6888 18.2703 57.4956 18.1354 57.2075C17.669 56.2108 19.01 52.8405 19.5869 51.3905C19.6397 51.2579 19.686 51.1413 19.7241 51.0441C19.3881 50.0652 19.1549 49.0814 19.0392 48.052C18.5122 43.3644 20.1078 38.6042 23.0283 34.9444C27.5721 29.25 35.575 26.3586 42.6046 25.5455Z" fill="#030A06"/>
<path d="M42.6394 25.5418L42.6049 25.5455C35.5752 26.3586 27.5724 29.25 23.0286 34.9444C20.108 38.6042 18.5125 43.3644 19.0395 48.052C19.1552 49.0814 19.3883 50.0652 19.7243 51.0441C19.6863 51.1413 19.6399 51.2579 19.5872 51.3905C19.0102 52.8405 17.6693 56.2108 18.1357 57.2075C18.2706 57.4956 18.5453 57.6888 18.8433 57.7836C18.966 57.8221 19.0897 57.8442 19.2174 57.8592C19.6113 57.7943 19.9753 57.713 20.2123 57.3608C20.4669 56.9818 20.7274 56.0721 20.9504 55.2936C21.0566 54.9225 21.1544 54.5813 21.2388 54.3415C21.5277 53.521 21.8556 52.7142 22.1831 51.9083C22.1844 51.9051 22.1857 51.902 22.1869 51.8989C22.2253 51.8045 22.2636 51.7102 22.3019 51.6159C28.0985 51.633 34.2898 49.8186 38.4833 45.6809C43.1731 41.0526 44.3545 33.5896 44.3637 27.274C44.3645 26.776 44.3302 26.1851 43.9659 25.8043C43.742 25.57 43.4048 25.4994 43.0918 25.5063C42.9408 25.5096 42.7898 25.5257 42.6394 25.5418ZM41.611 28.2568L41.7272 28.2635C41.7319 28.2756 41.7362 28.2863 41.7402 28.2959C41.7475 28.3136 41.7536 28.3276 41.7587 28.3392C41.78 28.3875 41.7839 28.3964 41.7829 28.4741C41.7458 33.54 40.3898 40.0623 36.7944 43.7724C33.4649 47.2082 28.2946 48.8941 23.5796 48.9875C25.7757 44.8569 29.3048 40.9396 32.9451 38.0302C33.5081 37.5806 34.0975 37.1742 34.6872 36.7676C35.0669 36.5058 35.4467 36.2439 35.8198 35.9702C36.1819 35.7045 36.6696 35.3439 36.7209 34.8592C36.768 34.4128 36.5306 34.0664 36.2511 33.7476C35.8597 33.5206 35.5731 33.426 35.1261 33.5571C34.4914 33.7434 33.8519 34.2129 33.2748 34.6367C33.1219 34.7489 32.9733 34.8581 32.8304 34.9578C28.1627 38.263 24.2842 42.5598 21.4727 47.5402C21.3779 43.4882 22.3006 40.0939 24.7856 36.8346C28.5149 31.9432 35.6529 29.0686 41.611 28.2568Z" fill="#030A06"/>
<path d="M133.154 42.7094C132.978 37.7301 128.8 33.8365 123.821 34.0115C118.841 34.1857 114.946 38.3656 115.122 43.345C115.297 48.3251 119.477 52.2194 124.457 52.0436C129.436 51.8671 133.329 47.6879 133.154 42.7094ZM124.134 36.7183C125.587 36.7772 126.764 37.1264 127.871 38.1071C129.191 39.2748 129.927 40.9619 130.023 42.7094C130.12 44.4585 129.57 46.2315 128.379 47.5344C127.291 48.7251 125.934 49.2581 124.344 49.3376C122.893 49.3225 121.696 49.0966 120.551 48.1445C119.214 47.0325 118.458 45.386 118.316 43.6679C118.169 41.8814 118.637 40.0344 119.823 38.6639C120.999 37.3053 122.389 36.8376 124.134 36.7183Z" fill="#030A06"/>
<path d="M108.08 41.9625C107.487 37.011 102.988 33.4817 98.0377 34.0846C93.101 34.686 89.5831 39.1705 90.175 44.1085C90.7668 49.0465 95.2449 52.5725 100.184 51.9903C105.136 51.4057 108.674 46.9131 108.08 41.9625ZM98.3266 36.7914C99.7709 36.6737 101.08 36.8257 102.299 37.6648C103.669 38.6066 104.53 40.0614 104.815 41.6864C105.138 43.5318 104.834 45.5052 103.724 47.0428C102.752 48.3894 101.538 49.0576 99.9198 49.3153C98.4419 49.3909 97.1363 49.301 95.8916 48.4204C94.5492 47.4747 93.6447 46.0278 93.3826 44.4068C93.081 42.6187 93.4423 40.5609 94.5098 39.0735C95.4478 37.7666 96.7575 37.042 98.3266 36.7914Z" fill="#030A06"/>
<path d="M152.067 34.0004C152.022 34.002 151.979 34.0052 151.934 34.0107C149.663 34.2788 147.618 35.3781 146.191 37.1805C144.561 39.2382 144.002 41.8472 144.324 44.4275C144.587 46.6937 145.747 48.7602 147.544 50.1673C149.672 51.8209 152.371 52.2409 155.001 51.8814C156.522 51.673 158.809 50.9444 159.782 49.6781C160.055 49.3225 160.193 48.8882 160.13 48.4396C160.086 48.1246 159.947 47.8232 159.688 47.6299C159.39 47.408 158.992 47.3801 158.638 47.4493C158.146 47.5452 157.705 47.8495 157.287 48.1381C157.198 48.1989 157.111 48.259 157.025 48.3163C155.188 49.2708 153.151 49.7194 151.131 49.0648C149.694 48.5915 148.506 47.5599 147.838 46.2013C147.489 45.5069 147.316 44.7696 147.162 44.0131H155.829C156.19 44.0136 156.577 44.026 156.975 44.0387C158.003 44.0717 159.103 44.107 160.01 43.9447C160.269 43.8986 160.515 43.7602 160.703 43.5772C161.129 43.162 161.205 42.5742 161.192 42.0071C161.144 39.8356 160.124 37.6935 158.544 36.2244C156.72 34.5278 154.52 33.8898 152.067 34.0004ZM152.334 36.7136C153.65 36.5593 154.977 36.8949 156.061 37.6577C157.357 38.5788 158.037 39.8865 158.31 41.4256C157.211 41.4389 156.111 41.4359 155.011 41.4329C154.462 41.4314 153.912 41.4299 153.363 41.4304L147.267 41.4384C147.546 40.5006 147.87 39.6487 148.469 38.8628C149.436 37.5973 150.774 36.9188 152.334 36.7136Z" fill="#030A06"/>
<path d="M103.793 27.5541C107.046 27.4769 110.317 27.5485 113.572 27.543C115.427 27.5398 117.795 27.3894 119.595 27.5748C119.885 27.605 120.116 27.6869 120.336 27.8794C120.649 28.1531 120.858 28.5659 120.869 28.9843C120.878 29.3621 120.647 29.7956 120.374 30.0493C120.166 30.2418 119.918 30.319 119.643 30.3635C118.894 30.4844 118.067 30.4136 117.306 30.4128L113.267 30.4057L113.265 45.3961C113.271 46.6592 113.431 49.4146 113.241 50.4892C113.181 50.8264 113.059 51.1629 112.826 51.4214C112.577 51.699 112.232 51.839 111.862 51.8469C111.473 51.8557 111.095 51.7706 110.815 51.4882C110.485 51.1581 110.365 50.6721 110.324 50.2211C110.249 49.3891 110.318 48.5086 110.327 47.6726C110.341 46.4357 110.33 45.198 110.33 43.9612L110.339 30.4033C108.996 30.4097 104.346 30.6236 103.394 30.1917C103.046 30.0342 102.828 29.7908 102.701 29.4289C102.567 29.0439 102.628 28.6335 102.822 28.2803C103.05 27.8667 103.354 27.6893 103.793 27.5541Z" fill="#030A06"/>
<path d="M82.5119 34.0123C83.7204 33.9439 84.9012 34.021 86.0746 34.3352C87.3135 34.6669 89.2085 35.3979 89.849 36.5735C90.0251 36.8973 90.117 37.2846 89.9927 37.6426C89.8656 38.0077 89.5189 38.2869 89.1695 38.43C88.1505 38.8476 86.8747 37.4437 85.9161 37.0826C84.3571 36.4948 82.4823 36.5274 80.9657 37.2353C79.5723 37.886 78.5705 39.1181 78.0517 40.549C77.4496 42.2099 77.3987 44.3758 78.1632 45.9945C78.8719 47.4946 80.176 48.543 81.7229 49.0894C83.493 49.7154 85.3372 49.3821 86.9914 48.5891C87.504 48.3115 87.9694 47.9416 88.5535 47.8207C88.8553 47.7587 89.1533 47.7913 89.4106 47.9695C89.7273 48.189 89.9834 48.6233 90.0254 49.0067C90.0649 49.3662 89.9251 49.6971 89.702 49.9731C88.7342 51.1726 86.5802 51.7756 85.1141 51.9553C82.5698 52.2671 79.9197 51.7573 77.8835 50.1338C75.9695 48.6376 74.7516 46.4232 74.5134 44.0059C74.2612 41.5974 74.9675 39.1865 76.4794 37.295C78.012 35.4106 80.1032 34.27 82.5119 34.0123Z" fill="#030A06"/>
<path d="M136.854 29.4596C136.905 29.4573 136.955 29.4549 137.005 29.4533C137.456 29.439 137.909 29.5599 138.228 29.8923C138.989 30.687 138.686 33.3643 138.678 34.4604C139.713 34.4668 142.233 34.1446 143.009 34.8351C143.29 35.0856 143.405 35.4324 143.405 35.8023C143.407 36.161 143.314 36.5047 143.048 36.7576C142.322 37.4448 139.703 37.1744 138.676 37.168C138.685 39.3697 138.388 46.1562 139.066 47.8266C140.163 50.5279 142.541 48.152 143.897 48.7907C144.187 48.9275 144.425 49.2162 144.533 49.5169C144.685 49.9448 144.549 50.3274 144.374 50.7203C144.343 50.7538 144.313 50.7864 144.283 50.819C143.464 51.6725 141.924 51.8777 140.794 51.8936C139.483 51.9127 138.242 51.69 137.274 50.7196C136.574 50.018 136.139 49.0555 135.925 48.0979C135.596 46.6184 135.732 44.9806 135.733 43.4717L135.737 37.1704C134.941 37.1696 134.145 37.1641 133.35 37.1513C133.219 37.0694 133.091 36.9851 132.975 36.8809C132.661 36.5977 132.518 36.1753 132.507 35.7593C132.497 35.411 132.604 35.0673 132.864 34.8263C133.507 34.2313 134.92 34.4445 135.737 34.4588C135.734 33.3126 135.483 31.2573 135.916 30.2487C136.108 29.8009 136.423 29.6386 136.854 29.4596Z" fill="#030A06"/>
<path fill-rule="evenodd" clip-rule="evenodd" d="M73.7467 29.0302C72.3762 28.8955 65.6679 28.9432 63.3407 28.9774C62.9128 28.9837 62.516 29.0129 62.1674 29.0386C61.8709 29.0604 61.6093 29.0797 61.3934 29.08C61.3934 29.08 60.4672 29.2974 60.167 29.7146C59.9706 29.9878 59.9035 30.3344 59.8566 30.6607C59.608 32.3936 59.4625 34.1617 59.3175 35.9239C59.2412 36.8514 59.165 37.7772 59.0739 38.6954L58.1913 47.6034C58.1679 47.8415 58.1272 48.1665 58.081 48.5356C57.9315 49.7287 57.7244 51.3815 57.8584 52.0393C57.9324 52.4039 58.1256 52.705 58.448 52.895C58.7661 53.0826 59.1265 53.1892 59.4886 53.2506L59.4919 53.2506C60.2403 53.2491 61.3689 53.2608 62.6299 53.2738C65.2444 53.3009 71.8927 53.3338 73.4386 53.2673C73.7468 53.2538 74.0735 53.2276 74.3641 53.1178C74.7543 52.9699 75.075 52.6875 75.2293 52.2945C75.3847 51.8992 75.3503 51.4562 75.174 51.0744C74.9969 50.6894 74.7574 50.4842 74.3559 50.3553H60.9934C61.2164 48.3879 61.4157 46.4182 61.5914 44.4462L61.7492 42.8432L61.7645 42.6843C61.8689 42.6857 62.0064 42.6877 62.1697 42.6902C63.5307 42.7108 70.1549 42.7585 70.9989 42.6326C71.3087 42.5865 71.598 42.5085 71.8247 42.2802C72.118 41.9843 72.2399 41.5755 72.2156 41.1651C72.1951 40.8167 72.0409 40.4373 71.7761 40.2026C71.5993 40.0467 71.3803 39.9457 71.1466 39.9131C70.3577 39.7983 64.4684 39.8294 62.9817 39.8485C62.5829 39.8536 62.2516 39.8579 62.0375 39.8582L62.7148 31.8666H69.9259C70.2936 31.8669 70.6766 31.8791 71.0654 31.8916C72.0065 31.9217 72.9819 31.953 73.8571 31.8173C74.1684 31.7696 74.4353 31.663 74.6611 31.4363C74.9376 31.1587 75.0889 30.7387 75.0677 30.349C75.046 29.9513 74.832 29.5727 74.5209 29.3285C74.2839 29.1423 74.0437 29.0588 73.7467 29.0302Z" fill="#030A06"/>
</svg>
